<?xml version='1.0' encoding='UTF-8'?>
<svg xmlns="http://www.w3.org/2000/svg" viewBox="0 0 1280 720" data-pptx-page-role="content">
  <rect id="background" data-pptx-role="background" x="0" y="0" width="1280" height="720" fill="#F7F9FC" />
  <g id="header" data-pptx-bounds="48 34 1180 86">
    <text x="54" y="82" font-family="Georgia, 'Noto Serif CJK SC', 'Songti SC', serif" font-size="36" font-weight="700" fill="#123B63">三类闭环与核心功能已落地，真实验收和专家盲评形成双重验证</text>
    <text x="56" y="112" font-family="Arial, 'Microsoft YaHei', sans-serif" font-size="18" fill="#5B6B7C">结论先行：业务研究、工程运行、成果交付和 Benchmark 评测已形成可展示、可复核的项目初版。</text>
  </g>
  <g id="closure-loop" data-pptx-bounds="52 150 560 438">
    <path d="M180 242C278 140 446 166 500 292C552 414 455 530 320 514C192 500 124 390 174 278" fill="none" stroke="#D7E0EA" stroke-width="22" stroke-linecap="round" />
    <path d="M180 242C278 140 446 166 500 292" fill="none" stroke="#123B63" stroke-width="22" stroke-linecap="round" />
    <path d="M500 292C552 414 455 530 320 514" fill="none" stroke="#2A7F9E" stroke-width="22" stroke-linecap="round" />
    <path d="M320 514C192 500 124 390 174 278" fill="none" stroke="#D59A24" stroke-width="22" stroke-linecap="round" />
    <circle cx="196" cy="222" r="55" fill="#FFFFFF" stroke="#123B63" stroke-width="3" /><use data-icon="tabler-outline/route-2" x="170" y="184" width="52" height="52" fill="#123B63" />
    <text x="196" y="262" text-anchor="middle" font-family="Arial, 'Microsoft YaHei', sans-serif" font-size="22" font-weight="700" fill="#123B63">业务闭环</text>
    <text x="196" y="292" text-anchor="middle" font-family="Arial, 'Microsoft YaHei', sans-serif" font-size="16" fill="#5B6B7C">三路线 · A–H · S1–S6</text>
    <circle cx="492" cy="316" r="55" fill="#FFFFFF" stroke="#2A7F9E" stroke-width="3" /><use data-icon="tabler-outline/database" x="466" y="278" width="52" height="52" fill="#2A7F9E" />
    <text x="492" y="356" text-anchor="middle" font-family="Arial, 'Microsoft YaHei', sans-serif" font-size="22" font-weight="700" fill="#2A7F9E">工程闭环</text>
    <text x="492" y="386" text-anchor="middle" font-family="Arial, 'Microsoft YaHei', sans-serif" font-size="16" fill="#5B6B7C">API · Queue · Worker · UI</text>
    <circle cx="300" cy="504" r="55" fill="#FFFFFF" stroke="#D59A24" stroke-width="3" /><use data-icon="tabler-outline/chart-bar" x="274" y="466" width="52" height="52" fill="#D59A24" />
    <text x="300" y="544" text-anchor="middle" font-family="Arial, 'Microsoft YaHei', sans-serif" font-size="22" font-weight="700" fill="#9A6A12">评测闭环</text>
    <text x="300" y="574" text-anchor="middle" font-family="Arial, 'Microsoft YaHei', sans-serif" font-size="16" fill="#5B6B7C">480 案例 · 真实专家盲评</text>
    <text x="322" y="352" text-anchor="middle" font-family="Arial, 'Microsoft YaHei', sans-serif" font-size="30" font-weight="700" fill="#17212B">闭环<tspan x="322" dy="38">初版</tspan></text>
  </g>
  <g id="metric-tests" data-pptx-bounds="650 154 274 190">
    <rect x="650" y="154" width="274" height="190" rx="22" fill="#FFFFFF" stroke="#D7E0EA" />
    <use data-icon="tabler-outline/checklist" x="678" y="180" width="38" height="38" fill="#2E8B6D" />
    <text x="690" y="274" font-family="Arial, 'Microsoft YaHei', sans-serif" font-size="54" font-weight="700" fill="#2E8B6D">446</text>
    <text x="814" y="270" font-family="Arial, sans-serif" font-size="24" font-weight="700" fill="#17212B">passed</text>
    <text x="690" y="314" font-family="Arial, 'Microsoft YaHei', sans-serif" font-size="18" fill="#5B6B7C">2026-07-17 全量回归</text>
  </g>
  <g id="metric-benchmark" data-pptx-bounds="936 154 302 190">
    <rect x="944" y="154" width="286" height="190" rx="22" fill="#123B63" />
    <use data-icon="tabler-outline/chart-bar" x="974" y="180" width="38" height="38" fill="#D59A24" />
    <text x="960" y="274" font-family="Arial, 'Microsoft YaHei', sans-serif" font-size="40" font-weight="700" fill="#FFFFFF">17胜 2平 0负</text>
    <text x="960" y="314" font-family="Arial, 'Microsoft YaHei', sans-serif" font-size="16" fill="#DDEAF2">对通用 Codex Agent · 94.74%</text>
  </g>
  <g id="function-panel" data-pptx-bounds="650 366 580 216">
    <rect x="650" y="366" width="580" height="216" rx="22" fill="#FFFFFF" stroke="#D7E0EA" />
    <use data-icon="tabler-outline/layers-linked" x="678" y="390" width="40" height="40" fill="#2A7F9E" />
    <text x="734" y="418" font-family="Arial, 'Microsoft YaHei', sans-serif" font-size="24" font-weight="700" fill="#123B63">核心功能已形成可运行闭环</text>
    <rect x="682" y="448" width="246" height="46" rx="18" fill="#EAF0F7" /><text x="805" y="478" text-anchor="middle" font-family="Arial, 'Microsoft YaHei', sans-serif" font-size="17" font-weight="700" fill="#123B63">三路线 + A–H 动态编排</text>
    <rect x="946" y="448" width="246" height="46" rx="18" fill="#DFF0F3" /><text x="1069" y="478" text-anchor="middle" font-family="Arial, 'Microsoft YaHei', sans-serif" font-size="17" font-weight="700" fill="#123B63">S1–S6 专业推理链</text>
    <rect x="682" y="510" width="246" height="46" rx="18" fill="#FFF3D8" /><text x="805" y="540" text-anchor="middle" font-family="Arial, 'Microsoft YaHei', sans-serif" font-size="17" font-weight="700" fill="#8A5D10">证据门控 + 交互审计</text>
    <rect x="946" y="510" width="246" height="46" rx="18" fill="#123B63" /><text x="1069" y="540" text-anchor="middle" font-family="Arial, 'Microsoft YaHei', sans-serif" font-size="17" font-weight="700" fill="#FFFFFF">成果矩阵 + Manifest</text>
  </g>
  <g id="decision-line" data-pptx-bounds="82 618 1116 48">
    <rect x="82" y="618" width="1116" height="48" rx="24" fill="#EAF0F7" />
    <text x="640" y="649" text-anchor="middle" font-family="Arial, 'Microsoft YaHei', sans-serif" font-size="22" font-weight="700" fill="#123B63">项目初版已具备甲方演示、工程复核与 Benchmark 对比验证条件</text>
  </g>
  <text id="page-number" data-pptx-role="page-number" x="1222" y="688" text-anchor="end" font-family="Arial, sans-serif" font-size="14" fill="#5B6B7C">02</text>
</svg>
